<?xml version="1.0" encoding="UTF-8"?>
<svg id="Layer_1" xmlns="http://www.w3.org/2000/svg" viewBox="0 0 901.71 256">
  <defs>
    <style>
      .cls-1 {
        fill: #fff;
      }

      .cls-2 {
        fill: #fbb040;
      }
    </style>
  </defs>
  <g>
    <path class="cls-2" d="M239.84,129.6c0,17.3,0,34.6,0,51.89,0,2-.87,2.92-2.89,2.93-9.17.02-18.35.04-27.52-.04-.94,0-2.04-.49-2.77-1.11-5.17-4.39-10.25-8.9-15.39-13.33-4.78-4.12-9.61-8.17-14.39-12.28-5.2-4.48-10.37-8.99-15.55-13.49-5.91-5.14-11.83-10.29-17.74-15.43-5.91-5.14-11.8-10.29-17.72-15.41-6.81-5.9-13.69-11.71-20.44-17.67-6.05-5.33-10.38-11.82-13.05-19.48-1.73-4.97-2.86-10.08-2.8-15.25.14-11.55,3.61-22.05,10.98-31.16,5.86-7.25,13.29-12.12,22.11-14.83,2.95-.91,6.1-1.17,9.16-1.69,1.75-.3,6.05-.62,7.77-.45,7.84.77,13.08,1.65,20.35,5.09,7.55,3.56,14.05,8.39,19.42,14.7,5.8,6.82,9.72,14.66,11.69,23.39.72,3.22,1.02,6.55,1.39,9.84.25,2.27-.54,3.01-2.83,3.01-6.32,0-12.65-.06-18.97,0-2.03.02-2.73-1.09-2.87-2.77-.84-10.54-6.07-18.38-14.85-23.96-5.28-3.35-11.12-5.04-17.39-4.66-8.53.52-16.12,5.17-19.55,14.1-1.57,4.09-2.43,8.2-1.55,12.6,1.31,6.53,5,11.41,10.08,15.52,4.04,3.26,7.85,6.79,11.79,10.18,4.77,4.11,9.58,8.17,14.35,12.28,3.51,3.04,6.96,6.15,10.47,9.19,4.82,4.17,9.68,8.29,14.5,12.46,5.61,4.86,11.17,9.76,16.78,14.62,5.71,4.94,11.45,9.84,17.17,14.77.68.59,1.29,1.26,2,1.81,1.5,1.15,3.02.53,3.32-1.34.09-.54.04-1.11.04-1.66,0-24.59,0-49.19,0-73.78,0-3.59.61-4.19,4.28-4.19,5.63,0,11.26-.01,16.89,0,2.38,0,3.73,1.39,3.73,3.7,0,17.3,0,34.6,0,51.89h-.01Z"/>
    <path class="cls-2" d="M26.94,129.19c0-17.43.01-34.87-.01-52.3,0-1.97,1.14-2.85,2.81-2.86,8.82-.07,17.65-.12,26.47.05,1.36.03,2.9.98,4.02,1.91,5.14,4.33,10.15,8.83,15.24,13.23,7.71,6.65,15.47,13.24,23.18,19.9,6.55,5.66,13.03,11.4,19.57,17.06,6.12,5.3,12.31,10.54,18.43,15.84,5.6,4.86,11.14,9.79,16.72,14.67,3.23,2.83,6.72,5.4,9.7,8.47,8.92,9.2,13.6,20.2,13.68,33.14.07,11.24-3.25,21.37-10.12,30.14-6.59,8.41-15.07,14.19-25.78,16.36-10.3,2.09-20.45,1.52-30.29-2-4.06-1.45-7.98-3.58-11.61-5.93-8.51-5.5-14.95-13-19.34-22.12-3.69-7.67-5.84-15.79-5.29-24.55,7.22.17,14.45.18,21.68.09,1.51-.02,2.11.45,2.32,1.9.97,6.7,3.1,12.96,7.59,18.17,3.82,4.44,8.4,7.87,14.16,9.37,3.26.84,6.63,2.02,9.9,1.88,10.85-.43,18.67-6.45,21.62-17.38,2.78-10.31-1.62-17.98-9.19-24.48-8.05-6.91-16.01-13.91-24.02-20.85-7.61-6.58-15.24-13.14-22.85-19.71-6.87-5.94-13.74-11.89-20.59-17.84-6.65-5.77-13.27-11.58-19.94-17.32-.5-.43-1.56-.82-1.98-.57-.67.4-1.24,1.28-1.44,2.07-.23.91,0,1.93,0,2.9,0,22.3,0,44.59,0,66.89,0,2.36-.13,4.72-.06,7.08.04,1.34-.51,1.99-1.77,2-6.88.02-13.76.04-20.63,0-1.67-.01-2.18-1.13-2.17-2.69.04-5.49.03-10.97.03-16.46,0-12.02,0-24.03,0-36.05h-.01Z"/>
  </g>
  <path class="cls-1" d="M304.02,163.64h-11.98v-54.81c0-8.93,5.07-14.92,15.73-14.92,9.54,0,13.8,4.87,16.64,12.69l19.99,43.74c.81,1.62,2.13,2.84,4.36,2.84,2.54,0,4.06-1.52,4.06-3.86v-54.2h12.08v54.71c0,9.03-5.18,15.02-15.73,15.02-9.54,0-13.9-4.87-16.75-12.69l-19.99-43.74c-.91-2.03-2.13-2.94-4.26-2.94-2.74,0-4.16,1.52-4.16,3.96v54.2Z"/>
  <path class="cls-1" d="M420.73,102.59c12.69,0,18.07,6.09,18.07,16.44s-4.97,15.43-18.17,15.43h-25.48v3.86c0,4.26,2.33,7.41,8.22,7.41h32.78v10.45h-32.78c-13.4,0-18.68-7.51-18.68-17.66v-18.27c0-10.15,5.28-17.66,18.68-17.66h17.36ZM395.16,126.04h25.17c5.79,0,7.92-2.44,7.92-6.39s-2.33-6.7-7.61-6.7h-17.25c-5.89,0-8.22,3.25-8.22,7.41v5.68Z"/>
  <path class="cls-1" d="M586.06,102.59v10.35h-29.64c-4.97,0-7,2.03-7,6.09,0,3.76,1.62,5.79,7.61,5.79h12.59c14.82,0,18.57,6.8,18.57,15.12,0,9.54-4.97,16.24-17.56,16.24h-31.16v-10.45h31.16c4.97,0,7-1.73,7-5.89s-2.23-5.99-7.61-5.99h-12.69c-14.82,0-18.47-7.41-18.47-15.63,0-9.64,4.97-15.63,17.46-15.63h29.74Z"/>
  <path class="cls-1" d="M640.26,91.84c14.21,0,23.14,8.73,23.14,26.79s-8.93,26.79-23.14,26.79h-23.75v21.52h-10.76v-52.17c0-15.43,6.8-22.94,19.69-22.94h14.82ZM616.51,134.97h22.63c9.34,0,13.4-4.77,13.4-16.34s-4.06-16.44-13.4-16.44h-10.56c-8.73,0-12.08,3.86-12.08,13.09v19.69Z"/>
  <path class="cls-1" d="M715.66,102.59c13.4,0,18.68,7.51,18.68,17.66v25.17c0,7.71-2.03,10.76-11.06,10.76h-25.07c-12.69,0-17.96-6.19-17.96-16.34s4.87-15.43,18.07-15.43h25.48v-4.06c0-4.16-2.33-7.41-8.22-7.41h-32.07v-10.35h32.17ZM723.78,142.99v-10.05h-25.27c-5.68,0-7.71,2.33-7.71,6.29s2.13,6.5,7.51,6.5h22.53c2.13,0,2.94-.81,2.94-2.74Z"/>
  <path class="cls-1" d="M802.94,102.59v10.35h-26.59c-9.34,0-13.4,4.87-13.4,16.44s4.06,16.34,13.4,16.34h26.59v10.45h-27.61c-14.31,0-23.24-8.73-23.24-26.79s8.93-26.79,23.24-26.79h27.61Z"/>
  <path class="cls-1" d="M855.72,102.59c12.69,0,18.07,6.09,18.07,16.44s-4.97,15.43-18.17,15.43h-25.48v3.86c0,4.26,2.33,7.41,8.22,7.41h32.78v10.45h-32.78c-13.4,0-18.68-7.51-18.68-17.66v-18.27c0-10.15,5.28-17.66,18.68-17.66h17.36ZM830.14,126.04h25.17c5.79,0,7.92-2.44,7.92-6.39s-2.33-6.7-7.61-6.7h-17.25c-5.89,0-8.22,3.25-8.22,7.41v5.68Z"/>
  <g>
    <path class="cls-2" d="M524.42,86.29c-8.57,13.05-16.96,25.83-25.43,38.73,8.85,13.5,17.71,27.03,26.72,40.78-.65,0-1.09,0-1.54,0-6.6,0-13.21-.05-19.81,0-1.16,0-1.78-.39-2.4-1.34-4.73-7.29-9.51-14.55-14.4-21.99-1.1,1.64-2.12,3.15-3.12,4.67-3.82,5.82-7.61,11.65-11.47,17.45-.35.53-1.09,1.12-1.65,1.13-7.23.08-14.47.05-21.94.05,1.46-2.23,2.83-4.32,4.2-6.41,15.68-23.9,31.38-47.79,47.03-71.7.66-1.01,1.34-1.38,2.54-1.38,6.66.05,13.31.01,19.97,0,.35,0,.7,0,1.29,0Z"/>
    <path class="cls-2" d="M450.85,86.33c3.58,0,6.79,0,9.99,0,3.85,0,7.71-.04,11.56.05.64.02,1.5.48,1.86,1.01,3.56,5.29,7.04,10.64,10.51,15.99.26.4.44,1.17.23,1.49-3.59,5.58-7.24,11.12-10.97,16.81-7.71-11.76-15.32-23.39-23.17-35.36Z"/>
  </g>
</svg>