<?xml version="1.0" encoding="UTF-8"?>
<svg id="Layer_1" xmlns="http://www.w3.org/2000/svg" viewBox="0 0 901.71 256">
  <defs>
    <style>
      .cls-1 {
        fill: #231f20;
      }

      .cls-2 {
        fill: #fbb040;
      }
    </style>
  </defs>
  <g>
    <path class="cls-2" d="M239.84,129.6c0,17.3,0,34.6,0,51.89,0,2-.87,2.92-2.89,2.93-9.17.02-18.35.04-27.52-.04-.94,0-2.04-.49-2.77-1.11-5.17-4.39-10.25-8.9-15.39-13.33-4.78-4.12-9.61-8.17-14.39-12.28-5.2-4.48-10.37-8.99-15.55-13.49-5.91-5.14-11.83-10.29-17.74-15.43-5.91-5.14-11.8-10.29-17.72-15.41-6.81-5.9-13.69-11.71-20.44-17.67-6.05-5.33-10.38-11.82-13.05-19.48-1.73-4.97-2.86-10.08-2.8-15.25.14-11.55,3.61-22.05,10.98-31.16,5.86-7.25,13.29-12.12,22.11-14.83,2.95-.91,6.1-1.17,9.16-1.69,1.75-.3,6.05-.62,7.77-.45,7.84.77,13.08,1.65,20.35,5.09,7.55,3.56,14.05,8.39,19.42,14.7,5.8,6.82,9.72,14.66,11.69,23.39.72,3.22,1.02,6.55,1.39,9.84.25,2.27-.54,3.01-2.83,3.01-6.32,0-12.65-.06-18.97,0-2.03.02-2.73-1.09-2.87-2.77-.84-10.54-6.07-18.38-14.85-23.96-5.28-3.35-11.12-5.04-17.39-4.66-8.53.52-16.12,5.17-19.55,14.1-1.57,4.09-2.43,8.2-1.55,12.6,1.31,6.53,5,11.41,10.08,15.52,4.04,3.26,7.85,6.79,11.79,10.18,4.77,4.11,9.58,8.17,14.35,12.28,3.51,3.04,6.96,6.15,10.47,9.19,4.82,4.17,9.68,8.29,14.5,12.46,5.61,4.86,11.17,9.76,16.78,14.62,5.71,4.94,11.45,9.84,17.17,14.77.68.59,1.29,1.26,2,1.81,1.5,1.15,3.02.53,3.32-1.34.09-.54.04-1.11.04-1.66,0-24.59,0-49.19,0-73.78,0-3.59.61-4.19,4.28-4.19,5.63,0,11.26-.01,16.89,0,2.38,0,3.73,1.39,3.73,3.7,0,17.3,0,34.6,0,51.89h-.01Z"/>
    <path class="cls-2" d="M26.94,129.19c0-17.43.01-34.87-.01-52.3,0-1.97,1.14-2.85,2.81-2.86,8.82-.07,17.65-.12,26.47.05,1.36.03,2.9.98,4.02,1.91,5.14,4.33,10.15,8.83,15.24,13.23,7.71,6.65,15.47,13.24,23.18,19.9,6.55,5.66,13.03,11.4,19.57,17.06,6.12,5.3,12.31,10.54,18.43,15.84,5.6,4.86,11.14,9.79,16.72,14.67,3.23,2.83,6.72,5.4,9.7,8.47,8.92,9.2,13.6,20.2,13.68,33.14.07,11.24-3.25,21.37-10.12,30.14-6.59,8.41-15.07,14.19-25.78,16.36-10.3,2.09-20.45,1.52-30.29-2 4.06-1.45-7.98-3.58-11.61-5.93-8.51-5.5-14.95-13-19.34-22.12-3.69-7.67-5.84-15.79-5.29-24.55,7.22.17,14.45.18,21.68.09,1.51-.02,2.11.45,2.32,1.9.97,6.7,3.1,12.96,7.59,18.17,3.82,4.44,8.4,7.87,14.16,9.37,3.26.84,6.63,2.02,9.9,1.88,10.85-.43,18.67-6.45,21.62-17.38,2.78-10.31-1.62-17.98-9.19-24.48-8.05-6.91-16.01-13.91-24.02-20.85-7.61-6.58-15.24-13.14-22.85-19.71-6.87-5.94-13.74-11.89-20.59-17.84-6.65-5.77-13.27-11.58-19.94-17.32-.5-.43-1.56-.82-1.98-.57-.67.4-1.24,1.28-1.44,2.07-.23.91,0,1.93,0,2.9,0,22.3,0,44.59,0,66.89,0,2.36-.13,4.72-.06,7.08.04,1.34-.51,1.99-1.77,2-6.88.02-13.76.04-20.63,0-1.67-.01-2.18-1.13-2.17-2.69.04-5.49.03-10.97.03-16.46,0-12.02,0-24.03,0-36.05h-.01Z"/>
  </g>
</svg>